<svg width="24" height="24" viewBox="0 0 24 24" fill="none" xmlns="http://www.w3.org/2000/svg">
<path d="M13.25 16.75C13.25 17.4404 12.6904 18 12 18C11.3096 18 10.75 17.4404 10.75 16.75C10.75 16.0596 11.3096 15.5 12 15.5C12.6904 15.5 13.25 16.0596 13.25 16.75Z" fill="#16181B"/>
<path d="M13 7C13 6.44772 12.5523 6 12 6C11.4477 6 11 6.44772 11 7V13.55C11 14.1023 11.4477 14.55 12 14.55C12.5523 14.55 13 14.1023 13 13.55V7Z" fill="#16181B"/>
<path fill-rule="evenodd" clip-rule="evenodd" d="M2 12C2 6.47715 6.47715 2 12 2C17.5228 2 22 6.47715 22 12C22 17.5228 17.5228 22 12 22C6.47715 22 2 17.5228 2 12ZM12 3.5C7.30558 3.5 3.5 7.30558 3.5 12C3.5 16.6944 7.30558 20.5 12 20.5C16.6944 20.5 20.5 16.6944 20.5 12C20.5 7.30558 16.6944 3.5 12 3.5Z" fill="#16181B"/>
</svg>
