<svg width="24" height="24" viewBox="0 0 24 24" fill="none" xmlns="http://www.w3.org/2000/svg">
<path d="M12 8.45001C12.6904 8.45001 13.25 7.89037 13.25 7.20001C13.25 6.50966 12.6904 5.95001 12 5.95001C11.3096 5.95001 10.75 6.50966 10.75 7.20001C10.75 7.89037 11.3096 8.45001 12 8.45001Z" fill="#16181B"/>
<path d="M13 10.45C13 9.89773 12.5523 9.45001 12 9.45001C11.4477 9.45001 11 9.89773 11 10.45V17C11 17.5523 11.4477 18 12 18C12.5523 18 13 17.5523 13 17V10.45Z" fill="#16181B"/>
<path fill-rule="evenodd" clip-rule="evenodd" d="M12 2C6.47715 2 2 6.47715 2 12C2 17.5228 6.47715 22 12 22C17.5228 22 22 17.5228 22 12C22 6.47715 17.5228 2 12 2ZM3.5 12C3.5 7.30558 7.30558 3.5 12 3.5C16.6944 3.5 20.5 7.30558 20.5 12C20.5 16.6944 16.6944 20.5 12 20.5C7.30558 20.5 3.5 16.6944 3.5 12Z" fill="#16181B"/>
</svg>
