<svg width="24" height="24" viewBox="0 0 24 24" fill="none" xmlns="http://www.w3.org/2000/svg">
<path fill-rule="evenodd" clip-rule="evenodd" d="M12 22C17.5228 22 22 17.5228 22 12C22 6.47715 17.5228 2 12 2C6.47715 2 2 6.47715 2 12C2 17.5228 6.47715 22 12 22ZM13.25 7.20001C13.25 7.89037 12.6904 8.45001 12 8.45001C11.3096 8.45001 10.75 7.89037 10.75 7.20001C10.75 6.50966 11.3096 5.95001 12 5.95001C12.6904 5.95001 13.25 6.50966 13.25 7.20001ZM12 9.45001C12.5523 9.45001 13 9.89773 13 10.45V17C13 17.5523 12.5523 18 12 18C11.4477 18 11 17.5523 11 17V10.45C11 9.89773 11.4477 9.45001 12 9.45001Z" fill="#16181B"/>
</svg>
