<svg width="24" height="24" viewBox="0 0 24 24" fill="currentColor" xmlns="http://www.w3.org/2000/svg">
<path d="M17.0835 9.22128C17.3437 8.89904 17.2935 8.42684 16.9713 8.16657C16.649 7.9063 16.1768 7.95654 15.9166 8.27877L11.162 14.1653L7.49991 10.8909C7.19113 10.6148 6.71699 10.6413 6.4409 10.9501C6.16481 11.2589 6.19132 11.733 6.5001 12.0091L10.7501 15.8091C10.9032 15.9461 11.1059 16.0142 11.3106 15.9976C11.5154 15.981 11.7044 15.8811 11.8335 15.7213L17.0835 9.22128Z" fill="currentColor"/>
<path fill-rule="evenodd" clip-rule="evenodd" d="M12 2C6.47715 2 2 6.47715 2 12C2 17.5228 6.47715 22 12 22C17.5228 22 22 17.5228 22 12C22 6.47715 17.5228 2 12 2ZM3.5 12C3.5 7.30558 7.30558 3.5 12 3.5C16.6944 3.5 20.5 7.30558 20.5 12C20.5 16.6944 16.6944 20.5 12 20.5C7.30558 20.5 3.5 16.6944 3.5 12Z" fill="currentColor"/>
</svg>
