<svg width="24" height="24" viewBox="0 0 24 24" fill="currentColor" xmlns="http://www.w3.org/2000/svg">
<path d="M18.4515 20.1485C18.9201 20.6171 19.6799 20.6171 20.1485 20.1485C20.6172 19.6798 20.6172 18.92 20.1485 18.4514L13.6971 12L20.1485 5.5485C20.6172 5.07987 20.6172 4.32007 20.1485 3.85144C19.6799 3.38281 18.9201 3.38281 18.4515 3.85144L12 10.3029L5.54853 3.85141C5.0799 3.38278 4.3201 3.38278 3.85147 3.85141C3.38284 4.32004 3.38284 5.07984 3.85147 5.54847L10.303 12L3.85147 18.4514C3.38284 18.9201 3.38284 19.6799 3.85147 20.1485C4.3201 20.6171 5.0799 20.6171 5.54853 20.1485L12 13.697L18.4515 20.1485Z" fill="currentColor"/>
</svg>
