<svg width="24" height="24" viewBox="0 0 24 24" fill="currentColor" xmlns="http://www.w3.org/2000/svg">
<path d="M7 12C7 12.6904 6.44036 13.25 5.75 13.25C5.05964 13.25 4.5 12.6904 4.5 12C4.5 11.3096 5.05964 10.75 5.75 10.75C6.44036 10.75 7 11.3096 7 12Z" fill="currentColor"/>
<path d="M13.25 12C13.25 12.6904 12.6904 13.25 12 13.25C11.3096 13.25 10.75 12.6904 10.75 12C10.75 11.3096 11.3096 10.75 12 10.75C12.6904 10.75 13.25 11.3096 13.25 12Z" fill="currentColor"/>
<path d="M18.25 13.25C18.9404 13.25 19.5 12.6904 19.5 12C19.5 11.3096 18.9404 10.75 18.25 10.75C17.5596 10.75 17 11.3096 17 12C17 12.6904 17.5596 13.25 18.25 13.25Z" fill="currentColor"/>
</svg>
