<svg width="24" height="24" viewBox="0 0 24 24" fill="currentColor" xmlns="http://www.w3.org/2000/svg">
<path d="M4.78033 20.2803C4.48744 20.5732 4.01256 20.5732 3.71967 20.2803C3.42678 19.9874 3.42678 19.5126 3.71967 19.2197L10.9393 12L3.71968 4.78033C3.42678 4.48744 3.42678 4.01256 3.71968 3.71967C4.01257 3.42678 4.48744 3.42678 4.78034 3.71967L12 10.9393L19.2197 3.71967C19.5126 3.42678 19.9874 3.42678 20.2803 3.71967C20.5732 4.01256 20.5732 4.48744 20.2803 4.78033L13.0607 12L20.2803 19.2197C20.5732 19.5126 20.5732 19.9874 20.2803 20.2803C19.9875 20.5732 19.5126 20.5732 19.2197 20.2803L12 13.0607L4.78033 20.2803Z" fill="currentColor"/>
</svg>
